<svg xmlns="http://www.w3.org/2000/svg" viewBox="0 0 640 512" fill="#9B3AF9">
  <path d="M323.4 85.2l-96.8 78.4c-16.1 13-19.2 36.4-7 53.1c12.9 17.8 38 21.3 55.3 7.8l99.3-77.2c7-5.4 17-4.2 22.5 2.8s4.2 17-2.8 22.5l-20.9 16.2L550.2 352H592c26.5 0 48-21.5 48-48V176c0-26.5-21.5-48-48-48H516h-4-.7l-3.9-2.5L434.8 79c-15.3-9.8-33.2-15-51.4-15c-21.8 0-43 7.5-60 21.2zm22.8 124.4l-51.7 40.2C263 274.4 217.3 268 193.7 235.6c-22.2-30.5-16.6-73.1 12.7-96.8l83.2-67.3c-11.6-4.9-24.1-7.4-36.8-7.4C234 64 215.7 69.6 200 80l-72 48V64c0-17.7-14.3-32-32-32H32C14.3 32 0 46.3 0 64V448c0 17.7 14.3 32 32 32H96c17.7 0 32-14.3 32-32V368l4.9 3.3c6.2 4.1 13.2 6.2 20.3 6.2c8.4 0 16.7-2.8 23.8-8.5l144-115.2c.2-.2 .4-.3 .6-.5z"/>
</svg>