<svg viewBox="0 0 24 24" fill="none" xmlns="http://www.w3.org/2000/svg">
  <path d="M3 14V7C3 5.34315 4.34315 4 6 4H18C19.6569 4 21 5.34315 21 7V14" stroke="currentColor" stroke-width="2.5" stroke-linecap="round" stroke-linejoin="round"/>
  <path d="M19 10V14C19 15.1046 18.1046 16 17 16H16C14.8954 16 14 15.1046 14 14V10C14 8.89543 14.8954 8 16 8H19C20.1046 8 21 8.89543 21 10V14Z" stroke="currentColor" stroke-width="2.5" stroke-linecap="round" stroke-linejoin="round"/>
  <path d="M5 10V14C5 15.1046 4.10457 16 3 16H2C0.89543 16 0 15.1046 0 14V10C0 8.89543 0.89543 8 2 8H5C6.10457 8 7 8.89543 7 10V14Z" stroke="currentColor" stroke-width="2.5" stroke-linecap="round" stroke-linejoin="round"/>
  <circle cx="12" cy="18" r="2" stroke="currentColor" stroke-width="2.5"/>
  <path d="M12 16V12" stroke="currentColor" stroke-width="2.5" stroke-linecap="round"/>
</svg>