<svg xmlns="http://www.w3.org/2000/svg" viewBox="0 0 640 512" fill="#9B3AF9">
  <path d="M144 0a80 80 0 1 1 0 160A80 80 0 1 1 144 0zM512 0a80 80 0 1 1 0 160A80 80 0 1 1 512 0zM0 298.7C0 239.8 47.8 192 106.7 192h42.7c15.9 0 31.4 3.5 45.2 9.8s26.6 15.6 35.4 27.2c8.8 11.6 13.2 25.9 13.2 40.6 0 14.7-4.4 29-13.2 40.6s-21.6 20.9-35.4 27.2-29.3 9.8-45.2 9.8H106.7C47.8 347.2 0 299.4 0 240.6v58.1zm288 0c0 58.9-47.8 106.7-106.7 106.7h-42.7c-15.9 0-31.4-3.5-45.2-9.8s-26.6-15.6-35.4-27.2c-8.8-11.6-13.2-25.9-13.2-40.6s4.4-29 13.2-40.6 21.6-20.9 35.4-27.2 29.3-9.8 45.2-9.8h42.7c58.9 0 106.7 47.8 106.7 106.7zm144-58.1v58.1c0 58.9-47.8 106.7-106.7 106.7h-42.7c-15.9 0-31.4-3.5-45.2-9.8s-26.6-15.6-35.4-27.2c-8.8-11.6-13.2-25.9-13.2-40.6s4.4-29 13.2-40.6 21.6-20.9 35.4-27.2 29.3-9.8 45.2-9.8h42.7c58.9 0 106.7 47.8 106.7 106.7z"/>
</svg>